PathFileType  4	(X/Y/Z) C:\Users\antoi\Documents\MyRepositories\mobilecap\ResultsAnalysis
DataRate	CameraRate	NumFrames	NumMarkers	Units	OrigDataRate	OrigDataStartFrame	OrigNumFrames
100.0	100.0	5	51	mm	100.0	609	1623
Frame#	Time	r_knee			r_shank_antsup			r_ankle			r_calc			r_5meta			r_toe			L_knee			L_shank_antsup			L_ankle			L_calc			L_5meta			L_toe			r_sh2			r_sh3			r_sh4			L_sh2			L_sh3			r_thigh1			r_thigh2			r_thigh3			r_thigh4			r_thigh5			L_thigh1			L_thigh2			L_thigh3			L_thigh4			r.ASIS			r.PSIS			L.ASIS			L.PSIS			C7			R_Shoulder			L_Shoulder			R_Sternum			L_Sternum			R_humerus			R_elbow_med			R_elbow_lat			R_forearm			R_wrist_radius			R_wrist_ulna			L_humerus			L_elbow_med			L_elbow_lat			L_forearm			L_wrist_radius			L_wrist_ulna			R_HJC			L_HJC			R_HJC_reg			L_HJC_reg			
		X1	Y1	Z1	X2	Y2	Z2	X3	Y3	Z3	X4	Y4	Z4	X5	Y5	Z5	X6	Y6	Z6	X7	Y7	Z7	X8	Y8	Z8	X9	Y9	Z9	X10	Y10	Z10	X11	Y11	Z11	X12	Y12	Z12	X13	Y13	Z13	X14	Y14	Z14	X15	Y15	Z15	X16	Y16	Z16	X17	Y17	Z17	X18	Y18	Z18	X19	Y19	Z19	X20	Y20	Z20	X21	Y21	Z21	X22	Y22	Z22	X23	Y23	Z23	X24	Y24	Z24	X25	Y25	Z25	X26	Y26	Z26	X27	Y27	Z27	X28	Y28	Z28	X29	Y29	Z29	X30	Y30	Z30	X31	Y31	Z31	X32	Y32	Z32	X33	Y33	Z33	X34	Y34	Z34	X35	Y35	Z35	X36	Y36	Z36	X37	Y37	Z37	X38	Y38	Z38	X39	Y39	Z39	X40	Y40	Z40	X41	Y41	Z41	X42	Y42	Z42	X43	Y43	Z43	X44	Y44	Z44	X45	Y45	Z45	X46	Y46	Z46	X47	Y47	Z47	X48	Y48	Z48	X49	Y49	Z49	X50	Y50	Z50	X51	Y51	Z51	

609	6.08000000	-171.58551	523.96345	-396.41379	-162.46950	445.40318	-365.00449	-294.21008	104.71663	-379.14191	-349.28873	54.20958	-428.15408	-164.54968	37.43902	-311.94867	-121.40939	62.74464	-365.34026	-142.77620	517.56867	-882.41127	-137.14154	401.69125	-908.44086	-274.97537	101.41973	-896.48383	-342.51830	53.57808	-856.68878	-129.43740	32.50902	-944.27751	-100.38759	60.07967	-882.08617	-196.76803	337.89793	-353.36376	-235.05774	468.30896	-373.63812	-274.79941	358.23082	-368.86583	-219.72524	437.81559	-906.11028	-254.75809	322.31346	-911.67046	-243.08895	834.45578	-426.18418	-184.64693	744.10510	-407.80221	-225.15204	692.27934	-385.71005	-335.91154	768.91684	-442.33844	-272.30760	676.42866	-409.21919	-213.60676	832.84428	-855.33325	-144.77487	714.26745	-873.33276	-316.59836	772.04798	-857.21721	-239.12080	658.52725	-880.00215	-231.55977	953.76523	-513.27181	-391.04134	1051.37424	-605.45359	-217.66143	944.64911	-770.19557	-385.60238	1048.66046	-709.41580	-232.13891	1519.99636	-658.80800	-187.17735	1473.84720	-479.54006	-153.96562	1478.52269	-814.87539	-95.64998	1430.75537	-616.06862	-91.28223	1426.11451	-669.25988	-292.03818	1234.80616	-376.05425	-338.88713	1139.98873	-444.01554	-339.00878	1155.91218	-358.45095	-244.56840	1028.82098	-321.15298	-175.12659	940.39503	-315.89255	-215.85880	924.79804	-305.73875	-250.57291	1245.49169	-915.51759	-321.58233	1164.43538	-854.47709	-305.51747	1172.00798	-927.07156	-229.68487	1014.59729	-955.60054	-173.80061	935.47647	-952.77490	-206.82435	916.91356	-959.05013	-336.44928	907.60186	-524.97771	-320.10892	898.33385	-754.57863	-323.17007	905.50952	-553.32948	-314.29416	901.08153	-722.96386	
610	6.09000000	-168.97586	522.67405	-394.70952	-160.04068	444.09082	-363.38687	-294.11083	104.65542	-379.07257	-349.31370	54.17532	-428.20168	-164.61832	37.25736	-311.95882	-121.52172	62.91214	-365.03517	-140.51629	516.09485	-883.33851	-135.21728	400.50169	-909.57731	-274.96849	101.39404	-896.46197	-342.54087	53.54439	-856.63234	-129.46297	32.50656	-944.29829	-100.41542	60.12428	-882.10371	-195.38429	336.82156	-352.31479	-232.72085	467.67889	-372.05870	-273.13542	357.95551	-367.97556	-217.53805	437.17542	-906.92555	-253.31008	322.03105	-912.17979	-246.36566	831.23859	-425.13649	-186.02379	741.19044	-406.43925	-226.15984	689.48485	-384.33726	-337.90566	763.97360	-441.85139	-272.74878	672.47136	-408.47957	-217.13799	829.85753	-856.37985	-145.73505	712.48635	-874.44671	-318.85842	766.94429	-857.50402	-239.17287	655.05461	-881.04426	-234.89102	947.29790	-514.06812	-393.74632	1046.27571	-605.53706	-221.73412	938.38727	-770.91320	-388.63885	1043.49287	-709.58759	-229.36939	1512.89354	-658.96783	-184.75195	1466.29647	-479.66140	-151.41863	1470.67353	-814.83821	-93.85960	1422.30682	-615.73418	-89.47243	1417.56329	-669.17824	-292.05980	1228.64146	-375.69419	-339.31399	1133.76143	-443.66954	-339.66297	1150.14733	-357.82458	-244.40946	1023.72307	-320.27588	-174.27192	935.92877	-314.73434	-214.89326	920.05022	-304.59894	-250.04020	1238.76041	-915.83442	-322.21157	1158.29221	-855.69153	-305.76815	1166.02850	-928.27409	-228.87548	1008.97847	-956.46715	-172.32229	930.55441	-953.90890	-205.28372	911.63871	-960.02066	-340.09593	901.94848	-525.43666	-324.47978	892.81215	-755.09313	-326.94569	900.05190	-553.82321	-318.62181	895.51637	-723.40035	
611	6.10000000	-166.48385	521.32077	-393.12361	-157.61140	442.75806	-361.78672	-294.07184	104.61878	-379.06868	-349.33732	54.14074	-428.24196	-164.69508	37.12746	-311.95089	-121.61005	63.08982	-364.77609	-138.33048	514.64175	-884.33917	-133.40914	399.43316	-910.77993	-274.95961	101.37677	-896.44624	-342.55459	53.52653	-856.57545	-129.47988	32.49773	-944.32547	-100.46339	60.16343	-882.12743	-193.90583	335.57086	-351.63830	-229.97811	467.10928	-370.74620	-271.36049	357.65221	-367.01004	-215.40328	436.56832	-907.76731	-252.05571	321.36408	-912.72793	-249.37355	827.76503	-424.39413	-186.66559	737.96643	-405.41844	-226.83619	686.58176	-383.16515	-339.64768	759.01576	-441.21411	-272.90921	668.66404	-407.51460	-220.38036	826.60009	-857.11779	-146.81564	710.87718	-875.49794	-321.04986	761.78316	-857.77605	-239.17095	651.53933	-881.92991	-238.19337	940.80930	-514.76556	-396.42386	1041.07467	-605.65882	-225.90353	931.97150	-771.51892	-391.68347	1038.01691	-709.54146	-226.65808	1505.62510	-658.95538	-182.30819	1458.44093	-479.67247	-148.90051	1462.60180	-814.81071	-92.05221	1413.67783	-615.60015	-87.69501	1408.84663	-669.09018	-292.01037	1222.22255	-375.32170	-339.85497	1127.41956	-443.13861	-340.32715	1144.12738	-357.32697	-244.23191	1018.34523	-319.43721	-173.38802	931.14854	-313.71165	-213.87041	915.04889	-303.46662	-249.52235	1231.87419	-916.40242	-322.77800	1151.79343	-856.92178	-305.90668	1159.75076	-929.46173	-227.86578	1003.17093	-957.52030	-170.82951	925.28317	-954.85009	-203.65492	906.11205	-961.03621	-343.67056	896.23963	-525.71137	-328.87328	887.06461	-755.42023	-330.73020	894.73252	-554.10760	-322.99695	889.74223	-723.60908	
612	6.11000000	-164.01455	519.75859	-391.94961	-155.22579	441.49054	-360.22980	-294.03016	104.56573	-379.08983	-349.34071	54.11580	-428.28012	-164.77001	37.04947	-311.95353	-121.65513	63.26412	-364.52267	-136.22152	513.22745	-885.43609	-131.61400	398.39496	-911.80905	-274.94661	101.37565	-896.41879	-342.54988	53.52494	-856.54951	-129.49873	32.49177	-944.35150	-100.53274	60.20461	-882.15178	-192.38573	334.49693	-350.97279	-227.09255	466.44941	-369.73528	-269.48134	357.20343	-366.24510	-213.35448	436.01918	-908.61699	-250.81713	320.89394	-913.26776	-252.07788	824.25847	-423.89941	-187.62895	735.59778	-404.69613	-227.14010	683.80609	-382.08154	-341.12443	753.98347	-440.46159	-272.77210	664.92597	-406.42782	-223.63238	823.16042	-857.73127	-148.03886	709.32594	-876.54629	-323.18489	756.58399	-858.21488	-239.11205	647.99302	-882.68321	-241.36558	934.25280	-515.31895	-399.05308	1035.69179	-605.67468	-229.73915	925.57900	-772.05335	-394.70733	1032.35742	-709.44110	-223.96546	1498.22466	-658.81778	-179.82207	1450.29665	-479.60872	-146.50026	1454.27860	-814.82834	-90.24741	1404.75114	-616.12263	-85.93706	1400.00688	-669.18325	-291.83099	1215.50024	-375.05946	-340.51577	1120.83447	-442.36623	-340.92158	1137.94804	-356.65774	-244.00440	1012.73400	-318.67976	-172.48429	926.20316	-312.78583	-212.84107	909.80483	-302.44662	-248.95151	1224.81886	-917.19602	-323.25203	1144.91904	-857.84507	-305.91443	1153.18827	-930.61770	-226.83230	997.11967	-958.59380	-169.30675	919.65853	-955.52220	-201.93718	900.30718	-962.16005	-347.05220	890.35236	-525.93415	-332.95191	881.23234	-755.68933	-334.25195	889.32193	-554.22941	-327.15390	883.87593	-723.70823	
613	6.12000000	-161.50328	518.22428	-391.04101	-152.80809	440.25679	-358.84085	-293.92689	104.51036	-379.12109	-349.31926	54.07059	-428.34775	-164.83022	37.20497	-311.76348	-121.68038	63.40266	-364.30852	-134.10981	511.83048	-886.54891	-129.81044	397.30150	-912.64928	-274.92833	101.37441	-896.37336	-342.54688	53.51436	-856.54672	-129.53603	32.48390	-944.38303	-100.59030	60.23484	-882.19821	-190.76001	333.63333	-350.18908	-224.54911	465.63140	-368.76341	-267.65849	356.60204	-365.80888	-211.34063	435.47850	-909.35187	-249.53502	320.68160	-913.63224	-254.58286	820.94510	-423.29690	-189.12687	734.16690	-404.17345	-227.14274	681.19595	-381.00514	-342.43863	749.04164	-439.60526	-272.39349	661.03821	-405.53653	-227.07446	819.63684	-858.29624	-149.21766	707.56894	-877.55327	-325.23582	751.36555	-858.84598	-239.09033	644.46595	-883.55556	-244.47838	927.52902	-515.80535	-401.63254	1030.10387	-605.49502	-232.97276	919.15886	-772.53220	-397.64495	1026.62434	-709.39985	-221.21682	1490.67394	-658.67861	-177.25474	1441.96557	-479.49329	-144.14399	1445.80668	-814.99245	-88.55287	1395.57183	-616.83917	-84.19634	1391.02603	-669.30511	-291.53996	1208.52436	-374.77576	-341.18369	1114.02178	-441.59928	-341.35996	1131.60395	-355.77126	-243.73778	1006.93662	-317.91883	-171.58935	921.13741	-311.90724	-211.78599	904.33250	-301.63086	-248.29045	1217.50039	-917.95091	-323.56898	1137.71281	-858.48407	-305.82020	1146.37900	-931.76659	-225.82893	990.75188	-959.48669	-167.74690	913.73180	-956.08374	-200.15718	894.16987	-963.21953	-350.29747	884.19793	-526.21810	-336.59151	875.36920	-756.00835	-337.46863	883.64055	-554.35933	-330.96336	877.96544	-723.83980	
